<svg xmlns="http://www.w3.org/2000/svg" viewBox="0 0 406.57 161.23"><defs><style>.cls-1{fill:#000035;}.cls-1,.cls-10,.cls-11,.cls-12,.cls-13,.cls-14,.cls-15,.cls-16,.cls-2,.cls-21,.cls-22,.cls-23,.cls-24,.cls-26,.cls-27,.cls-4,.cls-5,.cls-6,.cls-7,.cls-8,.cls-9{fill-rule:evenodd;}.cls-2,.cls-28{fill:#fff;}.cls-3{fill:#666;}.cls-4{fill:#333;}.cls-18,.cls-5{fill:#ccc;}.cls-7{fill:#1a1a1a;}.cls-8{fill:#999;}.cls-9{fill:#ddff63;}.cls-10{fill:#d5ff3f;}.cls-11{fill:#2ebd33;}.cls-12{fill:#b3b3b3;}.cls-13{fill:#3c3;}.cls-14{fill:#5fde35;}.cls-15{fill:#ff8b95;}.cls-16{fill:#a43737;}.cls-17{fill:#e6e6e6;}.cls-19{fill:#993;}.cls-20,.cls-21{fill:#aeae33;}.cls-22{fill:#185f64;}.cls-23{fill:#40797d;}.cls-24{fill:#649296;}.cls-25{fill:#3f3f25;}.cls-26{fill:#0cf;}.cls-27{fill:#2f9dd6;}</style></defs><g id="Layer_2" data-name="Layer 2"><g id="Layer_1-2" data-name="Layer 1"><g id="Objects"><path class="cls-1" d="M198.44,0A155.36,155.36,0,0,1,353.77,155.33H43.23C43.23,69.57,112.69,0,198.44,0Z"/><path class="cls-1" d="M74.77,80.56a74.81,74.81,0,0,1,74.89,74.77H0A74.71,74.71,0,0,1,74.77,80.56Z"/><path class="cls-1" d="M331.68,80.56a74.81,74.81,0,0,1,74.89,74.77H256.91a74.79,74.79,0,0,1,74.77-74.77Z"/><path class="cls-2" d="M262.58,25.4A2.6,2.6,0,1,1,260,28a2.62,2.62,0,0,1,2.6-2.59Z"/><path class="cls-2" d="M311.6,67.56a2.6,2.6,0,1,1-2.6,2.6,2.63,2.63,0,0,1,2.6-2.6Z"/><path class="cls-2" d="M254.55,75.83a2.63,2.63,0,0,1,2.6,2.6,2.6,2.6,0,1,1-5.2,0,2.62,2.62,0,0,1,2.6-2.6Z"/><path class="cls-2" d="M136,21a2.54,2.54,0,1,1-2.6,2.59A2.55,2.55,0,0,1,136,21Z"/><path class="cls-2" d="M81.62,109.62a2.52,2.52,0,0,1,2.6,2.48,2.6,2.6,0,0,1-5.2,0,2.52,2.52,0,0,1,2.6-2.48Z"/><path class="cls-2" d="M385.07,116.35a2.45,2.45,0,0,1,2.6,2.48,2.48,2.48,0,0,1-2.6,2.6,2.46,2.46,0,0,1-2.48-2.6,2.42,2.42,0,0,1,2.48-2.48Z"/><path class="cls-2" d="M373.38,108.08a1.3,1.3,0,1,1-1.3,1.3,1.31,1.31,0,0,1,1.3-1.3Z"/><path class="cls-2" d="M372.08,136.55a1.3,1.3,0,1,1-1.3,1.3,1.31,1.31,0,0,1,1.3-1.3Z"/><path class="cls-2" d="M397.47,136.07a1.3,1.3,0,1,1-1.3,1.3,1.31,1.31,0,0,1,1.3-1.3Z"/><path class="cls-2" d="M300.14,82.92a1.3,1.3,0,1,1-1.3,1.3,1.31,1.31,0,0,1,1.3-1.3Z"/><path class="cls-2" d="M298.84,57.05a1.3,1.3,0,1,1-1.3,1.3,1.31,1.31,0,0,1,1.3-1.3Z"/><path class="cls-2" d="M237.18,20.32a1.24,1.24,0,0,1,1.3,1.3,1.3,1.3,0,0,1-2.59,0,1.24,1.24,0,0,1,1.29-1.3Z"/><path class="cls-2" d="M134.07,64.85a1.3,1.3,0,1,1-1.3,1.3,1.3,1.3,0,0,1,1.3-1.3Z"/><path class="cls-2" d="M118,39.45a1.3,1.3,0,1,1-1.3,1.3,1.31,1.31,0,0,1,1.3-1.3Z"/><path class="cls-2" d="M35.2,109.38a1.3,1.3,0,1,1-1.3,1.3,1.31,1.31,0,0,1,1.3-1.3Z"/><path class="cls-2" d="M89.06,136.31a1.3,1.3,0,1,1-1.3,1.3,1.31,1.31,0,0,1,1.3-1.3Z"/><path class="cls-2" d="M103.47,119.77a1.18,1.18,0,0,1,1.3,1.3,1.24,1.24,0,0,1-1.3,1.3,1.21,1.21,0,0,1-1.18-1.3,1.15,1.15,0,0,1,1.18-1.3Z"/><path class="cls-3" d="M201.87,96.27l17.6,14.64,17.71,14.77a17.23,17.23,0,0,1-11,30.47h-71a17.26,17.26,0,0,1-9.81-31.53l16.54-13.71,17.72-14.76a17.31,17.31,0,0,1,22.21.12Z"/><path class="cls-4" d="M224.78,115.28l12.41,10.4H144l1.42-1.06,11.22-9.33h68.15Z"/><path class="cls-5" d="M209.54,99.93l-2.6,3.19-6.37-5.32,2.6-3.19Zm-8.62-7L198.8,96.5h-.12v-.11h-.12l-.12-.12h-.12l-.11-.12h0l-.12-.12H198l-.12-.12h-.12l-.11-.11h-.24v-.12h-.24v-.12H197l-.12-.12h-.24l-.12-.12h-.23v-.11h-.24l-.12-.12h-.23V95h-.36l-.11-.12H195l-.12-.12h-.35v-.11h-.48V94.5h-.47l-.12-.12h-.71v-.12H192l.23-4.13h.95l.12.12h.59l.11.11h.59l.12.12H195l.12.12h.36l.11.12H196l.12.12h.23l.12.11h.35v.12H197l.12.12h.23l.12.12h.24l.12.12H198l.12.11h.24l.12.12h.11l.12.12h.12l.12.12H199l.11.12h.24v.11h.12l.12.12h.11l.12.12H200l.12.12h.12l.11.12h0l.12.11h.12l.12.12h.12l.12.12Zm-13.35-2.72.71,4.14h-.35v.12h-.47l-.12.11h-.47v.12h-.47v.12H186l-.12.12h-.23v.11h-.24l-.12.12h-.23v.12h-.24l-.12.12h-.11l-.12.12h-.24l-.12.11H184l-.12.12h-.12v.12h-.24V96h-.23v.12h-.12l-.12.11H183l-.11.12h-.12v.12h-.12l-.12.12h-.12v.12h-.11l-.12.11H182V97h-.12l-.12.12h-.11v.12h0l-2.49-3.31h0l.12-.12h0l.12-.11.12-.12h.12v-.12h.11l.12-.12H180v-.12h.12l.12-.11h.11l.12-.12h0l.12-.12h.12l.12-.12h0l.11-.12h.24l.12-.11h0l.12-.12h.11l.12-.12h.12l.12-.12H182l.11-.12h.12V91.9h.24l.12-.12h.23v-.12H183l.12-.12h.23l.12-.12h.12l.12-.11h.23l.12-.12h.24l.12-.12h.23V91H185l.11-.12h.24l.12-.11h.35l.12-.12h.35l.12-.12h.36l.11-.12h.59l.12-.12Zm-11.69,6.38,2.6,3.19-6.38,5.31-2.6-3.18Zm-9.57,7.92,2.6,3.18-5.67,4.73-.71.59-2.6-3.19.71-.59Zm-9.56,7.91,2.59,3.19L153.08,121l-2.71-3.19Zm-9.57,8,2.71,3.19-3.19,2.6h-.11v.12h-.12l-.12.12h-.12v.11h-.11v.12H146l-.12.12h-.12V127h-.12v.12h-.11v.11h-.12l-.12.12h-.12v.12h-.12v.12h-.11v.12h-.12v.11h-.12v.12h-.12V128h-.12v.12h-.11v.12h-.12v.11h-.12v.12H144v.12h-.12v.12h-.11L140.68,126h0l.12-.12h0l.12-.11h0l.12-.12h0l.12-.12h0v-.12h.11v-.12h.12l.12-.11h0v-.12h.12V125h.12l.11-.12h0v-.12H142l.12-.11h0l.12-.12h0l.12-.12h.11v-.12h0l.12-.12h.12V124h.12l.12-.12h0l.11-.12h.12v-.12h.12v-.12h.12v-.12h.12l.11-.11h.12v-.12h.12v-.12H144l.12-.12h0Zm-9.1,9.33,3.66,2h0l-.11.12h0v.12h-.12v.12h0v.11h-.12v.12h0v.12h0l-.12.12h0v.12h0l-.12.11h0V133h0v.12H141v.12h0v.12h0l-.12.11h0v.12h0v.12h0l-.12.12h0V134h0v.11h-.12v.12h0v.12h0v.12h0l-.12.12h0v.11h0v.12h0l-.11.12h0V135h0v.12h0v.11h0l-.12.12h0v.12h0v.12h0v.12h0v.11h0l-.12.12h0v.12h0v.12h0v.12h0v.11h0l-.12.12h0v.12h0v.12h0v.12h0V137h0v.12h0v.12h0v.12h0l-.12.12h0v.11h0v.12h0v.12h0V138h0v.23h0v.12h0v.12h0v.12h0v.12h0v.11h-4.13v-.11h0v-.24h0v-.24h0v-.11h0v-.24h0v-.24h0v-.23h0v-.24H136v-.23h0v-.12h0v-.24h0v-.23h0v-.12l.12-.12h0V136h0v-.23h0v-.24h0l.11-.12h0v-.23h0v-.24h0l.12-.12h0v-.23h0v-.12h0v-.12l.12-.12h0v-.12h0v-.23h.12v-.24h0v-.12h0l.12-.11v-.12h0v-.12h0l.11-.12v-.12h0v-.11h0v-.12h.12v-.24h0l.12-.12h0v-.23h0l.12-.12h0v-.12h0l.12-.12v-.11h0v-.12h0l.11-.12h0v-.24h.12V131h0v-.11h.12v-.24h0l.12-.12h0v-.12h.12v-.11h0v-.12l.11-.12h0v-.12h0Zm-1.77,13.59,4-1h.11v.36h0l.12.11v.24h0l.12.12v.23h0v.12l.12.12v.12h0V144l.12.11v.12h0l.11.12v.24h0l.12.11v.12h0l.12.12v.24h.12v.23h.12v.24l.11.12h0v.11l.12.12h0v.12l.12.12h0l.12.12v.11h0l.12.12v.12h.11v.24h.12v.11l.12.12h0l.12.12v.12h0l.12.12v.11h.11v.12h.12v.12l.12.12h0v.12l.12.11h0l.12.12h0l.11.12v.12h.12v.12h.12v.11h0l-3.07,2.72h0l-.12-.12v-.11h-.12l-.12-.12v-.12l-.11-.12H140v-.12l-.12-.11v-.12l-.12-.12h-.12v-.12l-.11-.12v-.11h-.12V150l-.12-.12-.12-.11v-.12l-.12-.12h0l-.11-.12v-.12l-.12-.11v-.12l-.12-.12h0l-.12-.12v-.12l-.12-.11v-.12l-.11-.12h0l-.12-.12v-.12l-.12-.11v-.12l-.12-.12v-.12l-.12-.12h0l-.11-.11v-.24l-.12-.12v-.12l-.12-.11v-.24l-.12-.12v-.12h-.11v-.23l-.12-.12v-.24l-.12-.11v-.12l-.12-.12v-.24l-.12-.11v-.36l-.11-.12v-.23l-.12-.12h0V144l-.12-.11v-.36ZM144,154.62l2.36-3.31h.12v.12h.23v.12h.12l.12.12h0l.12.11h.12l.11.12h.12V152h.24v.12h.23v.12H148l.12.11h.12l.12.12h.11l.12.12h.12l.12.12H149l.11.12h.24V153h.24l.11.12h.24v.12h.35v.12h.36v.12H151v.11h.47v.12h.48l.11.12h.48l.11.12h.48l-.6,4.13h-.23l-.12-.12h-.59l-.12-.11H151l-.12-.12h-.35l-.12-.12H150l-.12-.12h-.24l-.12-.12h-.23l-.12-.11h-.35l-.12-.12h-.24l-.12-.12h-.11v-.12H148l-.12-.12h-.23l-.12-.11h-.12l-.12-.12h-.23l-.12-.12h0l-.12-.12h-.12l-.12-.12h-.23l-.12-.11h-.12l-.12-.12h0l-.11-.12h-.12l-.12-.12h-.12l-.11-.12h-.12v-.11h-.12l-.12-.12h-.12l-.11-.12h-.12v-.12h-.12l-.12-.12h-.12l-.11-.12-.12-.11h0Zm13,3.54V154h8.27v4.13Zm12.4,0V154h8.27v4.13Zm12.41,0V154h8.26v4.13Zm12.4,0V154h8.39v4.13Zm12.52,0V154H215v4.13Zm12.4,0V154h7.09v4.13h.12l1.06-1.06,1-.95v2h-9.22Zm5.08-4.13h2.95l.24,2m1,0v.11m0-.11H226.2m5.79,1.18-1.18-3.9h.11v-.12h.36v-.12h.35V153h.24v-.11h.23l.12-.12h.24v-.12h.23l.12-.12h.12v-.12h.24v-.11h.23v-.12h.24V152h.12l.11-.12H234l.12-.12h.12v-.11h.23v-.12h.12v-.12h.24v-.12h.12v-.12h.11l.12-.11h.12V151h.12v-.12h.12l.11-.12h0l.12-.12h.12v-.11H236v-.12h.12l.11-.12h0l.12-.12h0l.12-.12h.12v-.11h.12v-.12h.11v-.12h.12v-.12h0l3,3h0l-.12.11h-.12v.12h0l-.12.12h-.12V153h-.11v.12h-.12v.11h-.12v.12H239v.12h-.12l-.11.12h0l-.12.12h0l-.12.11h-.12v.12h-.12l-.11.12h0v.12H238l-.12.12h-.12v.11h-.12l-.11.12h0l-.12.12h-.12v.12h-.12l-.12.12H237l-.12.11h0l-.12.12h-.12v.12h-.23v.12h-.12l-.12.12H236v.11h-.23v.12h-.24v.12h-.12v.12h-.23V156h-.24v.11h-.24v.12h-.23v.12h-.24l-.12.12H234l-.12.12h-.24l-.12.11h-.23v.12h-.24l-.12.12h-.23v.12h-.36v.12H232Zm10.75-8.39-3.55-2.13h0l.12-.11v-.12h0l.12-.12v-.12l.12-.12h0V146l.11-.12h0v-.12l.12-.12h0l.12-.12v-.23H240v-.24h.12v-.23l.11-.12h0v-.24l.12-.12h0v-.11l.12-.12h0v-.24l.12-.12h0v-.23l.12-.12h0v-.35h.11v-.36h0l.12-.12v-.23h0v-.12l.12-.12V142h0v-.35h0l.12-.12v-.35h0v-.36h.12v-.35h0V140h0v-.12h0l4.13.24h0V141l-.12.12v.71l-.12.11v.59l-.11.12v.36h0l-.12.11v.36l-.12.12V144l-.12.12v.35l-.12.12v.24l-.11.11v.24l-.12.12v.12h0l-.12.11v.24l-.12.12v.23l-.12.12v.12l-.11.12v.23l-.12.12v.12h-.12v.24l-.12.11v.12l-.12.12v.12l-.11.12v.11l-.12.12v.12h-.12v.12l-.12.12v.11l-.12.12v.12l-.11.12Zm2.48-13.35-4.14.71h0v-.35h0v-.12l-.12-.12v-.12h0v-.35h-.11v-.35h0l-.12-.12v-.24h0l-.12-.12v-.23h0V134l-.12-.12v-.12h0l-.12-.11v-.12h0v-.12l-.11-.12v-.12h0l-.12-.11v-.12h0v-.12l-.12-.12v-.12h0l-.12-.12v-.12h0l-.12-.11v-.12h0l-.11-.12v-.12l-.12-.12h0v-.11l-.12-.12h0v-.12l-.12-.12h0l-.12-.12V131h0l-.11-.12v-.12H239v-.12l-.12-.12h0v-.11l-.12-.12h0l-.12-.12v-.12h-.11v-.12l-.12-.11h0l-.12-.12h0v-.12l3.19-2.48h.12v.12l.11.11.12.12h0l.12.12v.12l.12.12.12.11V128h.11v.12l.12.12v.12l.12.11v.12h.12v.12l.12.12.11.12v.11l.12.12v.12h.12v.24l.12.11v.12l.12.12v.12l.11.12h0l.12.12v.11l.12.12v.24l.12.12V131l.12.12v.12h0l.11.12v.12l.12.11v.24l.12.12v.23l.12.12v.24h.12v.23l.12.12v.36l.11.11v.24l.12.12v.35l.12.12v.35l.12.12h0V135l.12.11v.36Zm-7-11.69-2.6,3.19-6.38-5.32,2.6-3.19Zm-9.57-7.91-2.6,3.18-6.38-5.31,2.6-3.19Zm-9.57-8-2.6,3.19-6.37-5.2,2.59-3.18Z"/><path class="cls-3" d="M153.32,115.28h5.79l.23.36L153.08,121l-2.71-3.19Zm68.27,0h6.5l.59.6-2.6,3.18Zm15.12,10.4H234l-4.72-4,2.6-3.19,6.38,5.32Zm-89.3,0H141l.11-.12h0v-.12h.12v-.12h.12l.12-.11h0v-.12h.12V125h.11l.12-.12h0v-.12H142l.12-.11h0l.12-.12h0l.11-.12h.12v-.12h0l.12-.12h.12V124h.12l.11-.12h0l.12-.12h.12v-.12h.12v-.12h.12v-.11h.11l.12-.12h.12v-.12h.12v-.12H144l.11-.12h0l3.07-2.48,2.72,3.19Z"/><path class="cls-4" d="M220.29,150.25h5.91a11.34,11.34,0,0,0,7.2-20.08l-35.31-29.41h0a11.41,11.41,0,0,0-14.65-.12L149,129.34l-.24.24a11.31,11.31,0,0,0,6.5,20.67Z"/><polygon class="cls-6" points="227.97 125.68 215.57 115.28 165.84 115.28 153.32 125.68 227.97 125.68"/><path class="cls-7" d="M190.64,98a11.07,11.07,0,0,0-7.2,2.6L149,129.34l-.24.24a11.31,11.31,0,0,0,6.5,20.67h35.44V98Z"/><polygon class="cls-6" points="165.84 115.28 153.32 125.68 190.65 125.68 190.65 115.28 165.84 115.28"/><path class="cls-8" d="M224.43,127.8a10.4,10.4,0,0,1,0,20.79,10.4,10.4,0,0,1,0-20.79Z"/><path class="cls-8" d="M156.86,127.8a10.4,10.4,0,1,1-10.39,10.4,10.39,10.39,0,0,1,10.39-10.4Z"/><path class="cls-5" d="M224.43,127.8a10.42,10.42,0,0,1,10.39,10.4v.12H214.15v-.12a10.39,10.39,0,0,1,10.28-10.4Z"/><path class="cls-5" d="M156.86,127.8a10.39,10.39,0,0,1,10.28,10.4v.12H146.47v-.12a10.42,10.42,0,0,1,10.39-10.4Z"/><path class="cls-5" d="M190.64,100.28a10.34,10.34,0,1,1-10.39,10.28,10.39,10.39,0,0,1,10.39-10.28Z"/><path class="cls-9" d="M190.64,11.69h0a39.65,39.65,0,0,1,39.57,39.57V109H151.07V51.26a39.66,39.66,0,0,1,39.57-39.57Z"/><path class="cls-10" d="M224.78,109h-73.7V51.26a39.71,39.71,0,0,1,35-39.33A39.71,39.71,0,0,1,224.78,51.5V109Z"/><path class="cls-11" d="M165.6,79.73c9.57-19.37,40.76-19.37,50.32,0Z"/><path class="cls-12" d="M148.36,83.27h84.57a9.08,9.08,0,0,1,9.1,9v20.2a9.18,9.18,0,0,1-9.1,9.09H148.36a9.18,9.18,0,0,1-9.1-9.09V92.25a9.08,9.08,0,0,1,9.1-9Z"/><path class="cls-5" d="M148.36,83.27h84.57a9.08,9.08,0,0,1,9.1,9v11.34a11.93,11.93,0,0,1-9,3.78H148.24a11.93,11.93,0,0,1-9-3.78V92.25a9.08,9.08,0,0,1,9.1-9Z"/><path class="cls-3" d="M138.08,91.66h6a2.75,2.75,0,0,1,2.71,2.72v15.94a2.67,2.67,0,0,1-2.71,2.72h-6a2.65,2.65,0,0,1-2.6-2.72V94.38a2.73,2.73,0,0,1,2.6-2.72Z"/><path class="cls-4" d="M136.78,91.66h3a1.44,1.44,0,0,1,1.41,1.42v18.54a1.36,1.36,0,0,1-1.41,1.42h-3a1.34,1.34,0,0,1-1.3-1.42V93.08a1.42,1.42,0,0,1,1.3-1.42Z"/><path class="cls-3" d="M135.36,105.13h2a1,1,0,0,1,.95.94V110a.92.92,0,0,1-.95.83h-2a.84.84,0,0,1-.94-.83v-3.9a.93.93,0,0,1,.94-.94Z"/><path class="cls-3" d="M135.36,93.9h2a.92.92,0,0,1,.95.83v3.9a.93.93,0,0,1-.95.94h-2a.86.86,0,0,1-.94-.94v-3.9a.85.85,0,0,1,.94-.83Z"/><path class="cls-12" d="M150.37,79.73h80.56a.88.88,0,0,1,.82.83v1.89a.8.8,0,0,1-.82.82H150.37a.81.81,0,0,1-.83-.82V80.56a.88.88,0,0,1,.83-.83Z"/><path class="cls-13" d="M164.19,39c-1.54,8.39-1.54,22.68,1.29,26.1,9.45,11.82,41,11.82,50.56,0,2.72-3.42,2.72-17.71,1.18-26.1-2-10.39-51-10.39-53,0Z"/><path class="cls-14" d="M164.19,39c-1.54,8.39-1.54,22.68,1.29,26.1,4.73,5.91,15,8.86,25.28,8.86V31.18c-12.75,0-25.51,2.6-26.57,7.8Z"/><path class="cls-6" d="M182.14,49.49a2.37,2.37,0,0,1,0,4.73,2.37,2.37,0,0,1,0-4.73Z"/><path class="cls-6" d="M199.39,49.49a2.37,2.37,0,0,1,0,4.73,2.37,2.37,0,1,1,0-4.73Z"/><path class="cls-15" d="M170,57.41A5.32,5.32,0,1,1,170,68a5.32,5.32,0,1,1,0-10.63Z"/><path class="cls-15" d="M211.55,57.41a5.32,5.32,0,1,1,0,10.63,5.32,5.32,0,1,1,0-10.63Z"/><path class="cls-6" d="M193.24,60.24a5.55,5.55,0,0,1,5.56,5.55h-11a5.52,5.52,0,0,1,5.43-5.55Z"/><path class="cls-14" d="M179.42,21.85a2.53,2.53,0,0,1,2.49,2.6,2.49,2.49,0,0,1-5,0,2.53,2.53,0,0,1,2.48-2.6Z"/><polygon class="cls-14" points="178.83 25.04 179.42 25.04 180.01 25.04 180.49 36.5 179.42 36.5 178.36 36.5 178.83 25.04"/><path class="cls-13" d="M202.1,21.85a2.54,2.54,0,1,1-2.6,2.6,2.63,2.63,0,0,1,2.6-2.6Z"/><polygon class="cls-13" points="201.51 25.04 202.1 25.04 202.57 25.04 203.17 36.5 202.1 36.5 200.92 36.5 201.51 25.04"/><path class="cls-16" d="M165,69.1h0a2.33,2.33,0,0,1,2.25,2.24v4.73A2.24,2.24,0,0,1,165,78.31h0a2.26,2.26,0,0,1-2.36-2.24V71.34A2.34,2.34,0,0,1,165,69.1Z"/><path class="cls-16" d="M216.16,69.1h0a2.32,2.32,0,0,1,2.24,2.24v4.73a2.24,2.24,0,0,1-2.24,2.24h0a2.26,2.26,0,0,1-2.36-2.24V71.34a2.34,2.34,0,0,1,2.36-2.24Z"/><path class="cls-14" d="M165,71.34a5.5,5.5,0,0,1,5.44,5.44A5.42,5.42,0,0,1,165,82.21a5.34,5.34,0,0,1-5.43-5.43A5.42,5.42,0,0,1,165,71.34Z"/><path class="cls-13" d="M216.16,71.34a5.5,5.5,0,0,1,5.43,5.44,5.42,5.42,0,0,1-5.43,5.43,5.35,5.35,0,0,1-5.44-5.43,5.43,5.43,0,0,1,5.44-5.44Z"/><path class="cls-2" d="M216.16,25a4.34,4.34,0,0,1,4.25,4.37,4.25,4.25,0,0,1-8.5,0A4.34,4.34,0,0,1,216.16,25Z"/><rect class="cls-17" x="155.33" y="132.53" width="3.07" height="11.69"/><rect class="cls-17" x="218.64" y="136.78" width="11.69" height="3.07"/><path class="cls-2" d="M233.05,87.41h1.54a2.87,2.87,0,0,1,2.83,2.83h0a2.88,2.88,0,0,1-2.83,2.84h-1.54a2.87,2.87,0,0,1-2.83-2.84h0a2.87,2.87,0,0,1,2.83-2.83Z"/><path class="cls-2" d="M201.87,87.41h17.6a2.87,2.87,0,0,1,2.83,2.83h0a2.88,2.88,0,0,1-2.83,2.84h-17.6A2.88,2.88,0,0,1,199,90.24h0a2.88,2.88,0,0,1,2.84-2.83Z"/><rect class="cls-18" x="223.25" y="154.03" width="5.08" height="4.13"/><rect class="cls-19" x="27.4" y="149.89" width="342.19" height="11.34"/><rect class="cls-20" x="27.4" y="149.89" width="342.19" height="5.43"/><path class="cls-21" d="M331.68,138.55c-2.72,3-9,9.45-16.66,11.34-9.56,2.25,20.32,3.19,20.32,4.26,0,.47,2.36.47,5.2.23,2.83.24,5.08.24,5.08-.23,0-1.07,29.88-2,20.31-4.26-7.56-1.89-13.93-8.38-16.53-11.34Z"/><path class="cls-21" d="M299.91,143.52c-1,2-3.43,6.49-6.38,7.79-3.66,1.54,7.91,2.24,7.91,2.95,0,.36.83.36,1.89.12,1.18.24,2,.24,2-.12,0-.71,11.58-1.41,7.91-2.95-2.95-1.3-5.43-5.79-6.37-7.79Z"/><path class="cls-21" d="M104.89,143.52c-1.06,2-3.43,6.49-6.38,7.79-3.78,1.54,7.92,2.24,7.92,2.95,0,.36.82.36,1.89.12,1.18.24,2,.24,2-.12,0-.71,11.58-1.41,7.92-2.95-3-1.3-5.44-5.79-6.5-7.79Z"/><path class="cls-21" d="M56.93,138c-1.53,3.07-5.19,9.81-9.68,11.7C41.7,152,59.18,153,59.18,154.15c0,.47,1.3.47,3,.23,1.66.24,2.95.24,2.95-.23,0-1.18,17.37-2.13,11.82-4.49-4.37-1.89-8-8.63-9.57-11.7Z"/><path class="cls-22" d="M46,28.94A38.08,38.08,0,1,1,46,82.8a38.07,38.07,0,0,1,0-53.86Z"/><path class="cls-23" d="M46,28.94A38.08,38.08,0,0,1,99.81,82.8Z"/><path class="cls-24" d="M64.14,28.82a11,11,0,1,1,0,15.59,11.12,11.12,0,0,1,0-15.59Z"/><path class="cls-23" d="M56.34,80.56a4.18,4.18,0,1,1,0,5.9,4.13,4.13,0,0,1,0-5.9Z"/><path class="cls-24" d="M53.15,27.76a3.09,3.09,0,0,1,4.14,0,2.92,2.92,0,1,1-4.14,4.13,3.08,3.08,0,0,1,0-4.13Z"/><path class="cls-24" d="M92.84,40.75a6.21,6.21,0,0,1,8.86,0,6.43,6.43,0,0,1,0,8.86,6.26,6.26,0,0,1-8.86-8.86Z"/><rect class="cls-25" x="282.07" y="123.55" width="6.26" height="26.34"/><rect class="cls-25" x="334.63" y="123.55" width="6.26" height="26.34"/><path class="cls-26" d="M267.54,88.59h87.88A3.43,3.43,0,0,1,358.85,92V136.9a3.43,3.43,0,0,1-3.43,3.42H267.54a3.42,3.42,0,0,1-3.42-3.42V92a3.42,3.42,0,0,1,3.42-3.42Z"/><path class="cls-27" d="M271.91,90.72h79.14a5.74,5.74,0,0,1,5.67,5.67v36.14a5.75,5.75,0,0,1-5.67,5.67H271.91a5.78,5.78,0,0,1-5.79-5.67V96.38a5.77,5.77,0,0,1,5.79-5.66Z"/><path class="cls-28" d="M282,115.88l1.89-3.43c.59-1.18,1.06-2.36,1.66-3.66h.11c-.11,1.42-.23,3.42-.23,4.84v2.25Zm10.63,0h-2.12V104.42h-6.74l-7,11.81V120h8.63v4.49h5.08V120h2.12Zm9.33,9c4.49,0,7.56-3.54,7.56-10.51s-3.07-10.4-7.56-10.4-7.44,3.55-7.44,10.4,3,10.51,7.44,10.51Zm0-4.13c-1.3,0-2.36-1.06-2.36-6.38s1.06-6.14,2.36-6.14,2.37.83,2.37,6.14-1.07,6.38-2.37,6.38Zm14.41-4.84,1.78-3.43a33.88,33.88,0,0,0,1.65-3.66h.12c0,1.42-.12,3.42-.12,4.84v2.25Zm10.64,0h-2.13V104.42H318l-6.85,11.81V120h8.62v4.49h5.08V120H327v-4.13Zm2.59,5.78a3.19,3.19,0,1,0,3.19-3.3,3.11,3.11,0,0,0-3.19,3.3Zm10.16,0a3.18,3.18,0,0,0,3.19,3.19,3.25,3.25,0,0,0,0-6.49,3.2,3.2,0,0,0-3.19,3.3Z"/></g></g></g></svg>